{
  "accessors": {
    "accessor_15": {
      "bufferView": "bufferView_1",
      "byteOffset": 0,
      "byteStride": 0,
      "componentType": 5123,
      "count": 183018,
      "type": "SCALAR",
      "min": [
        0
      ],
      "max": [
        38574
      ]
    },
    "accessor_17": {
      "bufferView": "bufferView_0",
      "byteOffset": 462096,
      "byteStride": 0,
      "componentType": 5123,
      "count": 38508,
      "max": [
        65535,
        65535,
        65535
      ],
      "min": [
        0,
        0,
        0
      ],
      "type": "VEC3",
      "extensions": {
        "WEB3D_quantized_attributes": {
          "decodedMin": [
            -583.572998046875,
            -119.39400482177734,
            -632.68603515625
          ],
          "decodedMax": [
            583.572998046875,
            119.39400482177734,
            632.68603515625
          ],
          "decodeMatrix": [
            0.01780950631103609,
            0,
            0,
            0,
            0,
            0.003643671467819557,
            0,
            0,
            0,
            0,
            0.019308340128366522,
            0,
            -583.572998046875,
            -119.39400482177734,
            -632.68603515625,
            1
          ]
        }
      }
    },
    "accessor_normal_generated": {
      "bufferView": "bufferView_0",
      "byteOffset": 0,
      "byteStride": 0,
      "componentType": 5126,
      "count": 38508,
      "type": "VEC3",
      "min": [
        null,
        null,
        null
      ],
      "max": [
        null,
        null,
        null
      ]
    }
  },
  "animations": {},
  "asset": {
    "generator": "collada2gltf@",
    "premultipliedAlpha": true,
    "profile": {
      "api": "WebGL",
      "version": "1.0.2"
    },
    "version": "1.0"
  },
  "bufferViews": {
    "bufferView_0": {
      "buffer": "buffer_0",
      "byteLength": 693144,
      "byteOffset": 0,
      "target": 34962
    },
    "bufferView_1": {
      "buffer": "buffer_0",
      "byteLength": 366036,
      "byteOffset": 693144,
      "target": 34963
    }
  },
  "buffers": {
    "buffer_0": {
      "type": "arraybuffer",
      "byteLength": 1059180,
      "uri": "data:application/octet-stream;base64,"
    }
  },
  "materials": {
    "Effect": {
      "name": "CityEngineShapeMaterial",
      "technique": "technique0",
      "values": {
        "ambient": [
          0,
          0,
          0,
          1
        ],
        "diffuse": [
          1,
          1,
          1,
          1
        ]
      }
    }
  },
  "meshes": {
    "Geometry0": {
      "name": "mesh_CityEngineShapeMaterial",
      "primitives": [
        {
          "attributes": {
            "POSITION": "accessor_17"
          },
          "indices": "accessor_15",
          "material": "Effect",
          "mode": 4
        }
      ]
    }
  },
  "nodes": {
    "rootNode": {
      "children": [],
      "meshes": [
        "Geometry0"
      ],
      "matrix": [
        1,
        0,
        0,
        0,
        0,
        1,
        0,
        0,
        0,
        0,
        1,
        0,
        0,
        0,
        0,
        1
      ]
    }
  },
  "programs": {
    "program_0": {
      "attributes": [
        "a_position"
      ],
      "fragmentShader": "input0FS",
      "vertexShader": "input0VS"
    }
  },
  "scene": "defaultScene",
  "scenes": {
    "defaultScene": {
      "nodes": [
        "rootNode"
      ]
    }
  },
  "shaders": {
    "input0FS": {
      "type": 35632,
      "uri": "data:text/plain;base64,"
    },
    "input0VS": {
      "type": 35633,
      "uri": "data:text/plain;base64,"
    }
  },
  "skins": {},
  "techniques": {
    "technique0": {
      "attributes": {
        "a_position": "position"
      },
      "parameters": {
        "ambient": {
          "type": 35666
        },
        "diffuse": {
          "type": 35666
        },
        "modelViewMatrix": {
          "semantic": "MODELVIEW",
          "type": 35676
        },
        "position": {
          "semantic": "POSITION",
          "type": 35665
        },
        "projectionMatrix": {
          "semantic": "PROJECTION",
          "type": 35676
        }
      },
      "program": "program_0",
      "states": {
        "enable": [
          2929,
          2884
        ],
        "disable": []
      },
      "uniforms": {
        "u_diffuse": "diffuse",
        "u_modelViewMatrix": "modelViewMatrix",
        "u_projectionMatrix": "projectionMatrix"
      }
    }
  },
  "extensionsUsed": [
    "WEB3D_quantized_attributes"
  ],
  "cameras": {},
  "images": {},
  "samplers": {},
  "textures": {}
}
